<?xml version="1.0" standalone="no"?>
<!DOCTYPE svg PUBLIC "-//W3C//DTD SVG 20010904//EN"
 "http://www.w3.org/TR/2001/REC-SVG-20010904/DTD/svg10.dtd">
<svg version="1.0" xmlns="http://www.w3.org/2000/svg"
 width="512.000000pt" height="512.000000pt" viewBox="0 0 512.000000 512.000000"
 preserveAspectRatio="xMidYMid meet">
<metadata>
Created by potrace 1.11, written by Peter Selinger 2001-2013
</metadata>
<g transform="translate(0.000000,512.000000) scale(0.100000,-0.100000)"
fill="#000000" stroke="none">
<path d="M590 5104 c-141 -30 -261 -95 -365 -198 -82 -80 -132 -154 -170 -247
-49 -123 -54 -178 -52 -509 l2 -305 146 -1 147 -1 0 296 c-1 251 2 306 16 356
42 147 146 256 287 303 66 22 87 24 414 26 l260 1 1 148 2 147 -312 -1 c-222
-1 -330 -5 -376 -15z"/>
<path d="M3843 4972 l0 -149 301 -1 c166 0 310 -3 321 -6 142 -34 254 -124
315 -251 39 -81 43 -121 44 -445 l1 -275 148 -1 147 -2 0 307 c-1 326 -8 391
-52 501 -75 189 -226 342 -409 414 -124 49 -167 54 -502 55 l-314 2 0 -149z"/>
<path d="M1050 4145 c-219 -48 -411 -228 -480 -450 -32 -104 -35 -243 -6 -360
23 -92 94 -212 172 -289 128 -128 281 -189 471 -188 337 1 623 282 638 626 12
288 -173 552 -455 646 -82 28 -246 35 -340 15z m263 -170 c90 -23 157 -62 223
-130 112 -114 154 -249 132 -423 -1 -7 -14 -24 -30 -38 -38 -31 -70 -31 -223
0 -150 31 -225 37 -262 21 -38 -17 -77 -55 -152 -148 -52 -65 -102 -107 -125
-107 -11 0 -60 56 -91 104 -50 79 -68 140 -71 245 -4 142 37 243 141 347 122
123 295 172 458 129z"/>
<path d="M3775 4141 c-197 -49 -352 -176 -436 -356 -44 -96 -60 -158 -62 -251
-4 -173 39 -305 142 -434 44 -56 46 -57 101 -101 257 -203 633 -185 859 43
126 127 189 265 197 434 14 300 -177 571 -466 659 -81 25 -248 28 -335 6z
m279 -167 c143 -44 237 -122 301 -249 40 -80 45 -95 52 -185 10 -132 -30 -192
-126 -185 -25 2 -100 13 -166 25 -144 25 -203 27 -241 7 -30 -15 -89 -75 -154
-155 -50 -62 -93 -87 -122 -71 -29 16 -52 42 -88 104 -108 183 -79 425 70 574
31 31 63 61 71 66 32 24 105 57 153 70 61 17 194 17 250 -1z"/>
<path d="M1214 2183 c7 -203 55 -388 144 -565 67 -131 130 -216 247 -334 152
-153 250 -219 460 -309 134 -58 334 -93 515 -90 150 3 196 9 318 41 379 98
688 348 868 700 87 172 130 344 140 562 l6 122 -1352 0 -1351 0 5 -127z m2530
-70 c-55 -473 -376 -872 -814 -1011 -147 -47 -211 -57 -370 -57 -191 1 -292
19 -424 77 -300 131 -465 413 -511 871 l-6 57 38 1 c21 1 52 3 68 4 17 1 107
5 200 9 94 5 197 10 230 11 33 2 119 6 190 9 72 4 177 9 235 11 240 12 311 15
420 20 63 3 153 7 200 10 47 2 148 7 225 11 77 3 141 7 142 7 1 1 42 3 91 5
l90 3 -4 -38z"/>
<path d="M0 964 c2 -330 7 -380 52 -494 74 -187 227 -342 410 -415 120 -48
169 -53 503 -52 l310 2 1 146 1 146 -288 1 c-159 0 -308 3 -331 7 -170 28
-331 194 -354 365 -4 30 -8 178 -8 330 l-1 275 -148 1 -148 1 1 -313z"/>
<path d="M4826 1271 c-2 -3 -3 -137 -3 -296 0 -245 -3 -300 -17 -350 -43 -148
-144 -254 -293 -306 -53 -19 -82 -21 -365 -22 l-306 -1 0 -148 1 -149 314 2
c335 1 378 6 503 55 35 14 76 34 91 45 15 10 31 19 36 19 21 0 167 148 208
209 54 84 72 124 100 231 22 81 23 100 22 400 l-2 315 -143 1 c-78 1 -144 -1
-146 -5z"/>
</g>
</svg>
